{"title":"The.Chronicles.Of.Narnia.The.Voyage.Of.The.Dawn.Treader.2010.PRO","uid":6341372,"size":1482636505,"categoryP":"video","categoryS":"movies","magnet":"?xt=urn:btih:80d1386578f3e39709c03743ad31c3f90f926f81&amp;dn=The.Chronicles.Of.Narnia.The.Voyage.Of.The.Dawn.Treader.2010.PRO&amp;tr=udp%3A%2F%2Ftracker.openbittorrent.com%3A80&amp;tr=udp%3A%2F%2Fopen.demonii.com%3A1337&amp;tr=udp%3A%2F%2Ftracker.coppersurfer.tk%3A6969&amp;tr=udp%3A%2F%2Fexodus.desync.com%3A6969","seeders":0,"leechers":1,"uploader":"TvTeam","files":10,"time":1303677690,"description":". \n  &lt;a href=&quot;\nhttp://www.torrenting.com/&quot; rel=&quot;nofollow&quot; target=&quot;_NEW&quot;&gt;\nhttp://www.torrenting.com/&lt;/a&gt;        :     Greatest Movie Tracker on The Net!!!\n &lt;a href=&quot;\nhttp://www.Torrenting.com&quot; rel=&quot;nofollow&quot; target=&quot;_NEW&quot;&gt;\nhttp://www.Torrenting.com&lt;/a&gt;          :     Once &amp; For all ;)\n\n\n               www . Torrenting . Com \n\n(((((((((((((= Enjoy No RAR releases =))))))))))))))))))))\n\n\n...................................NFO:....................................\n\n.                                                                                                     \n       \n     \n     \n       \n       \n     \n     \n                                         \n                                         \n                EXVID                    \n                                         \n         \n                                         \n         Filled the Archives             \n                                         \n         \n                                         \n                With:                    \n                                         \n         \n                                         \n                                    \n     E240                           \n                                    \n     SP               (C) 2009      \n                                         \n     \n     \n     \n                                                                                  \n                                                                                   \n  The.Chronicles.Of.Narnia.The.Voyage.Of.The.Dawn.Treader.2010.PROPER.DVDRip.XviD-EXViD     \n                                                                                   \n                                                                                  \n     \n                                                                                               \nEXViD aims to iNTERNAL those releases which have been lost in the archives.\nEXViD aims to PRE non-internal releases which have poor sources and are likely skipped by others.\n &lt;a href=&quot;\nhttp://www.imdb.com/title/tt0980970/&quot; rel=&quot;nofollow&quot; target=&quot;_NEW&quot;&gt;\nhttp://www.imdb.com/title/tt0980970/&lt;/a&gt;\nSubtitles: NL, FR, EN, AR\nDate: 2011.04\n\nDirector: Michael Apted\n\nGenres:\nGenres: Adventure | Family | Fantasy\n\nPlot:\nLucy and Edmund Pevensie return to Narnia with their cousin Eustace where they meet up with Prince\nCaspian for a trip across the sea aboard the royal ship The Dawn Treader. Along the way they\nencounter dragons, dwarves, merfolk, and a band of lost warriors before reaching the edge of\nthe world.\n\nCast:\nCredited cast:\nGeorgie Henley \t ... \tLucy Pevensie \nSkandar Keynes \t ... \tEdmund Pevensie \nBen Barnes \t ... \tCaspian \nWill Poulter \t ... \tEustace Clarence Scrubb \nGary Sweet \t ... \tDrinian \nTerry Norris \t ... \tLord Bern \nBruce Spence \t ... \tLord Rhoop \nBille Brown \t ... \tCoriakin \nLaura Brent \t ... \tLiliandil \nColin Moody \t ... \t Auctioneer \nTilda Swinton \t ... \tThe White Witch \nAnna Popplewell \t ... \tSusan Pevensie \nWilliam Moseley \t ... \tPeter Pevensie \nShane Rangi \t ... \tTavros \nArthur Angel \t ... \tRhince\n\nStats:\nFormat                           : AVI\nFormat/Info                      : Audio Video Interleave\nFile size                        : 1.37 GiB\nDuration                         : 1h 48mn\nOverall bit rate                 : 1 810 Kbps\nWriting application              : VirtualDubMod 1.5.10.2 (build 2540/release)\nWriting library                  : VirtualDubMod build 2540/release\n\nVideo\nID                               : 0\nFormat                           : MPEG-4 Visual\nFormat profile                   : Advanced Simple@L5\nFormat settings, BVOP            : Yes\nFormat settings, QPel            : No\nFormat settings, GMC             : No warppoints\nFormat settings, Matrix          : Default (H.263)\nMuxing mode                      : Packed bitstream\nCodec ID                         : XVID\nCodec ID/Hint                    : XviD\nDuration                         : 1h 48mn\nBit rate                         : 1 353 Kbps\nWidth                            : 640 pixels\nHeight                           : 352 pixels\nDisplay aspect ratio             : 16:9\nFrame rate                       : 25.000 fps\nColor space                      : YUV\nChroma subsampling               : 4:2:0\nBit depth                        : 8 bits\nScan type                        : Progressive\nBits/(Pixel*Frame)               : 0.240\nStream size                      : 1.02 GiB (75%)\nWriting library                  : XviD 62\n\nAudio\nID                               : 1\nFormat                           : AC-3\nFormat/Info                      : Audio Coding 3\nMode extension                   : CM (complete main)\nCodec ID                         : 2000\nDuration                         : 1h 48mn\nBit rate mode                    : Constant\nBit rate                         : 448 Kbps\nChannel(s)                       : 6 channels\nChannel positions                : Front: L C R, Side: L R, LFE\nSampling rate                    : 48.0 KHz\nBit depth                        : 16 bits\nStream size                      : 346 MiB (25%)\nAlignment                        : Split accross interleaves\nInterleave, duration             : 40 ms (1.00 video frame)\nInterleave, preload duration     : 500 ms\n\n\n\n\nRelease notes:\nDASH &amp; friends used fake proof on their releases:\n\nReal R2 proof pic included.\n\nenjoy!\n\nLooking for:\n75TB+ Archives\nDUTCH/FLEMiSH Archives\n                                                                                                    \nGreets: CRBS EPiSODE FiCO FLS iLS KLASSiGER LiPSYNC MADE NODLABS RUNNER SPRiNTER      \n   \n\n                                                                    ASCII DONE BY XX^NFO 2oo9","torrent":{"xt":"urn:btih:80d1386578f3e39709c03743ad31c3f90f926f81","amp;dn":"The.Chronicles.Of.Narnia.The.Voyage.Of.The.Dawn.Treader.2010.PRO","amp;tr":["udp%3A%2F%2Ftracker.openbittorrent.com%3A80","udp%3A%2F%2Fopen.demonii.com%3A1337","udp%3A%2F%2Ftracker.coppersurfer.tk%3A6969","udp%3A%2F%2Fexodus.desync.com%3A6969"],"infoHash":"80d1386578f3e39709c03743ad31c3f90f926f81","infoHashBuffer":{"type":"Buffer","data":[128,209,56,101,120,243,227,151,9,192,55,67,173,49,195,249,15,146,111,129]},"announce":[],"urlList":[]}}